<svg data-v-d3f97b9e="" xmlns="http://www.w3.org/2000/svg" viewBox="0 0 522 90"><!----><!----><!----><g data-v-d3f97b9e="" id="3f3f6156-2643-4d32-831c-cdd9a998217d" fill="#ffffff" transform="matrix(6.036216979508284,0,0,6.036216979508284,181.7184637880934,-21.307845526548107)"><path d="M3.26 5.28L0.75 5.28L0.75 5.28Q0.23 5.28 0.23 4.83L0.23 4.83L0.23 3.97L0.23 3.97Q0.23 3.53 0.75 3.53L0.75 3.53L7.77 3.53L7.77 3.53Q8.29 3.53 8.29 3.97L8.29 3.97L8.29 4.83L8.29 4.83Q8.29 5.28 7.77 5.28L7.77 5.28L5.26 5.28L5.26 12.95L5.26 12.95Q5.26 13.33 4.92 13.33L4.92 13.33L3.60 13.33L3.60 13.33Q3.26 13.33 3.26 12.95L3.26 12.95L3.26 5.28ZM8.78 13.33L7.69 13.33L7.69 13.33Q7.28 13.33 7.28 12.92L7.28 12.92L7.28 6.56L7.28 6.56Q7.28 6.15 7.69 6.15L7.69 6.15L8.77 6.15L8.77 6.15Q9.18 6.15 9.18 6.56L9.18 6.56L9.18 7.12L9.21 7.12L9.21 7.12Q9.39 6.69 9.80 6.35L9.80 6.35L9.80 6.35Q10.22 6.02 10.79 6.02L10.79 6.02L10.79 6.02Q11.18 6.02 11.43 6.11L11.43 6.11L11.43 6.11Q11.67 6.20 11.61 6.44L11.61 6.44L11.42 7.25L11.42 7.25Q11.36 7.53 11.05 7.42L11.05 7.42L11.05 7.42Q10.88 7.36 10.71 7.36L10.71 7.36L10.71 7.36Q10.06 7.36 9.63 8.14L9.63 8.14L9.63 8.14Q9.19 8.93 9.19 10.43L9.19 10.43L9.19 12.92L9.19 12.92Q9.19 13.33 8.78 13.33L8.78 13.33ZM12.27 9.74L12.27 9.74L12.27 9.74Q12.27 8.00 13.17 7.01L13.17 7.01L13.17 7.01Q14.07 6.02 15.85 6.02L15.85 6.02L15.85 6.02Q17.62 6.02 18.52 7.01L18.52 7.01L18.52 7.01Q19.42 8.00 19.42 9.74L19.42 9.74L19.42 9.74Q19.42 11.48 18.52 12.48L18.52 12.48L18.52 12.48Q17.62 13.47 15.85 13.47L15.85 13.47L15.85 13.47Q14.07 13.47 13.17 12.48L13.17 12.48L13.17 12.48Q12.27 11.48 12.27 9.74ZM14.29 9.74L14.29 9.74L14.29 9.74Q14.29 11.04 14.69 11.58L14.69 11.58L14.69 11.58Q15.09 12.13 15.85 12.13L15.85 12.13L15.85 12.13Q16.60 12.13 17.00 11.58L17.00 11.58L17.00 11.58Q17.40 11.04 17.40 9.74L17.40 9.74L17.40 9.74Q17.40 8.44 17.00 7.90L17.00 7.90L17.00 7.90Q16.60 7.36 15.85 7.36L15.85 7.36L15.85 7.36Q15.09 7.36 14.69 7.90L14.69 7.90L14.69 7.90Q14.29 8.44 14.29 9.74ZM22.40 13.33L21.31 13.33L21.31 13.33Q20.90 13.33 20.90 12.92L20.90 12.92L20.90 6.56L20.90 6.56Q20.90 6.15 21.31 6.15L21.31 6.15L22.39 6.15L22.39 6.15Q22.80 6.15 22.80 6.56L22.80 6.56L22.80 6.96L22.83 6.96L22.83 6.96Q23.14 6.42 23.63 6.22L23.63 6.22L23.63 6.22Q24.11 6.02 24.79 6.02L24.79 6.02L24.79 6.02Q25.86 6.02 26.56 6.69L26.56 6.69L26.56 6.69Q27.25 7.36 27.25 9.13L27.25 9.13L27.25 12.92L27.25 12.92Q27.25 13.33 26.84 13.33L26.84 13.33L25.75 13.33L25.75 13.33Q25.34 13.33 25.34 12.92L25.34 12.92L25.34 9.63L25.34 9.63Q25.34 8.13 25.14 7.75L25.14 7.75L25.14 7.75Q24.93 7.36 24.25 7.36L24.25 7.36L24.25 7.36Q23.54 7.36 23.17 7.91L23.17 7.91L23.17 7.91Q22.81 8.47 22.81 10.23L22.81 10.23L22.81 12.92L22.81 12.92Q22.81 13.33 22.40 13.33L22.40 13.33ZM30.97 13.33L29.93 13.33L29.93 13.33Q29.46 13.33 29.46 12.82L29.46 12.82L29.46 11.90L29.46 11.90Q29.46 11.39 29.93 11.39L29.93 11.39L30.97 11.39L30.97 11.39Q31.45 11.39 31.45 11.90L31.45 11.90L31.45 12.82L31.45 12.82Q31.45 13.33 30.97 13.33L30.97 13.33ZM35.35 13.33L34.31 13.33L34.31 13.33Q33.83 13.33 33.83 12.82L33.83 12.82L33.83 4.04L33.83 4.04Q33.83 3.53 34.31 3.53L34.31 3.53L39.72 3.53L39.72 3.53Q40.23 3.53 40.23 3.97L40.23 3.97L40.23 4.78L40.23 4.78Q40.23 5.22 39.72 5.22L39.72 5.22L35.83 5.22L35.83 7.60L39.16 7.60L39.16 7.60Q39.67 7.60 39.67 8.05L39.67 8.05L39.67 8.85L39.67 8.85Q39.67 9.30 39.16 9.30L39.16 9.30L35.83 9.30L35.83 12.82L35.83 12.82Q35.83 13.33 35.35 13.33L35.35 13.33ZM41.69 10.35L41.69 10.35L41.69 6.56L41.69 6.56Q41.69 6.15 42.10 6.15L42.10 6.15L43.20 6.15L43.20 6.15Q43.61 6.15 43.61 6.56L43.61 6.56L43.61 9.86L43.61 9.86Q43.61 11.35 43.81 11.74L43.81 11.74L43.81 11.74Q44.02 12.13 44.67 12.13L44.67 12.13L44.67 12.13Q45.37 12.13 45.73 11.57L45.73 11.57L45.73 11.57Q46.09 11.01 46.09 9.26L46.09 9.26L46.09 6.56L46.09 6.56Q46.09 6.15 46.50 6.15L46.50 6.15L47.60 6.15L47.60 6.15Q48.01 6.15 48.01 6.56L48.01 6.56L48.01 12.92L48.01 12.92Q48.01 13.33 47.60 13.33L47.60 13.33L46.52 13.33L46.52 13.33Q46.11 13.33 46.11 12.92L46.11 12.92L46.11 12.52L46.08 12.52L46.08 12.52Q45.77 13.06 45.28 13.27L45.28 13.27L45.28 13.27Q44.80 13.47 44.13 13.47L44.13 13.47L44.13 13.47Q43.09 13.47 42.39 12.80L42.39 12.80L42.39 12.80Q41.69 12.13 41.69 10.35ZM51.37 13.33L50.28 13.33L50.28 13.33Q49.87 13.33 49.87 12.92L49.87 12.92L49.87 6.56L49.87 6.56Q49.87 6.15 50.28 6.15L50.28 6.15L51.36 6.15L51.36 6.15Q51.77 6.15 51.77 6.56L51.77 6.56L51.77 6.96L51.80 6.96L51.80 6.96Q52.11 6.42 52.60 6.22L52.60 6.22L52.60 6.22Q53.08 6.02 53.76 6.02L53.76 6.02L53.76 6.02Q54.83 6.02 55.53 6.69L55.53 6.69L55.53 6.69Q56.23 7.36 56.23 9.13L56.23 9.13L56.23 12.92L56.23 12.92Q56.23 13.33 55.82 13.33L55.82 13.33L54.72 13.33L54.72 13.33Q54.31 13.33 54.31 12.92L54.31 12.92L54.31 9.63L54.31 9.63Q54.31 8.13 54.11 7.75L54.11 7.75L54.11 7.75Q53.90 7.36 53.22 7.36L53.22 7.36L53.22 7.36Q52.51 7.36 52.14 7.91L52.14 7.91L52.14 7.91Q51.78 8.47 51.78 10.23L51.78 10.23L51.78 12.92L51.78 12.92Q51.78 13.33 51.37 13.33L51.37 13.33Z"></path></g><!----><g data-v-d3f97b9e="" id="b229a981-26e8-4330-ae0b-da24b8fd1931" transform="matrix(2.3300970873786406,0,0,2.3300970873786406,-22.854368932038824,-61.24757281553397)" stroke="none" fill="#FCB826"><path d="M45.375 55.125C33.365 55.125 23.119 47 19.086 37H17.25c0 15 12.592 28.125 28.125 28.125S73.5 52 73.5 37h-1.837c-4.032 10-14.278 18.125-26.288 18.125z"></path><circle cx="12.75" cy="29.25" r="2.75"></circle><circle cx="77.25" cy="29.25" r="2.75"></circle></g><!----><g data-v-d3f97b9e="" id="88ae296e-93f3-4e9c-ae40-35958caff59a" fill="#ffffff" transform="matrix(0.9544099815667569,0,0,0.9544099815667569,182.02830569603285,57.99573752525296)"><path d="M2.18 8.18L5.31 8.18C7.28 8.18 8.50 7.03 8.50 5.19C8.50 3.37 7.28 2.21 5.31 2.21L1.13 2.21L1.13 11.48L2.18 11.48ZM5.24 3.21C6.69 3.21 7.45 3.96 7.45 5.19C7.45 6.44 6.69 7.20 5.24 7.20L2.18 7.20L2.18 3.21ZM16.93 2.21L16.93 11.48L23.03 11.48L23.03 10.47L17.98 10.47L17.98 2.21ZM35.55 2.21L34.23 2.21L30.30 11.48L31.46 11.48L32.59 8.79L37.18 8.79L38.32 11.48L39.48 11.48ZM33.00 7.83L34.89 3.30L36.78 7.83ZM50.47 7.81L54.35 2.21L53.07 2.21L49.94 6.72L46.80 2.21L45.53 2.21L49.42 7.81L49.42 11.48L50.47 11.48ZM80.26 2.21L77 6.61L73.68 2.21L72.46 2.21L72.46 11.48L73.51 11.48L73.51 3.81L77 8.22L80.43 3.81L80.43 11.48L81.48 11.48L81.48 2.21ZM94.86 2.10C92.05 2.10 90.16 4.21 90.16 6.85C90.16 9.48 92.05 11.59 94.86 11.59C97.68 11.59 99.57 9.48 99.57 6.85C99.57 4.21 97.68 2.10 94.86 2.10ZM94.86 10.57C92.61 10.57 91.21 8.93 91.21 6.85C91.21 4.76 92.61 3.12 94.86 3.12C97.12 3.12 98.52 4.76 98.52 6.85C98.52 8.93 97.12 10.57 94.86 10.57ZM109.30 7.92L112.52 7.92L114.76 11.48L116.00 11.48L113.57 7.74C114.60 7.50 115.81 6.90 115.81 5.11C115.81 3.35 114.59 2.21 112.69 2.21L108.25 2.21L108.25 11.48L109.30 11.48ZM109.30 3.21L112.56 3.21C113.88 3.21 114.76 3.93 114.76 5.11C114.76 6.55 113.50 6.93 112.50 6.93L109.30 6.93ZM131.43 3.22L131.43 2.21L124.61 2.21L124.61 11.48L131.43 11.48L131.43 10.47L125.66 10.47L125.66 7.35L130.82 7.35L130.82 6.33L125.66 6.33L125.66 3.22ZM156.93 3.22L156.93 2.21L150.11 2.21L150.11 11.48L156.93 11.48L156.93 10.47L151.16 10.47L151.16 7.35L156.31 7.35L156.31 6.33L151.16 6.33L151.16 3.22ZM169.78 2.21L168.46 2.21L164.53 11.48L165.69 11.48L166.82 8.79L171.42 8.79L172.55 11.48L173.71 11.48ZM167.23 7.83L169.12 3.30L171.01 7.83ZM182.94 7.92L186.16 7.92L188.40 11.48L189.64 11.48L187.21 7.74C188.24 7.50 189.45 6.90 189.45 5.11C189.45 3.35 188.23 2.21 186.33 2.21L181.89 2.21L181.89 11.48L182.94 11.48ZM182.94 3.21L186.20 3.21C187.52 3.21 188.40 3.93 188.40 5.11C188.40 6.55 187.14 6.93 186.14 6.93L182.94 6.93ZM205.20 2.21L205.20 10.01L199.47 2.21L198.25 2.21L198.25 11.48L199.30 11.48L199.30 3.65L205.03 11.48L206.25 11.48L206.25 2.21ZM233.30 2.21L230.03 6.61L226.72 2.21L225.50 2.21L225.50 11.48L226.55 11.48L226.55 3.81L230.03 8.22L233.46 3.81L233.46 11.48L234.51 11.48L234.51 2.21ZM247.90 2.10C245.08 2.10 243.19 4.21 243.19 6.85C243.19 9.48 245.08 11.59 247.90 11.59C250.71 11.59 252.60 9.48 252.60 6.85C252.60 4.21 250.71 2.10 247.90 2.10ZM247.90 10.57C245.64 10.57 244.24 8.93 244.24 6.85C244.24 4.76 245.64 3.12 247.90 3.12C250.15 3.12 251.55 4.76 251.55 6.85C251.55 8.93 250.15 10.57 247.90 10.57ZM262.33 7.92L265.55 7.92L267.79 11.48L269.04 11.48L266.60 7.74C267.64 7.50 268.84 6.90 268.84 5.11C268.84 3.35 267.62 2.21 265.72 2.21L261.28 2.21L261.28 11.48L262.33 11.48ZM262.33 3.21L265.59 3.21C266.91 3.21 267.79 3.93 267.79 5.11C267.79 6.55 266.53 6.93 265.54 6.93L262.33 6.93ZM284.47 3.22L284.47 2.21L277.65 2.21L277.65 11.48L284.47 11.48L284.47 10.47L278.70 10.47L278.70 7.35L283.85 7.35L283.85 6.33L278.70 6.33L278.70 3.22Z"></path></g></svg>